<svg xmlns="http://www.w3.org/2000/svg" xmlns:xlink="http://www.w3.org/1999/xlink" width="1400" zoomAndPan="magnify" viewBox="0 0 1050 1049.999947" height="1400" preserveAspectRatio="xMidYMid meet" version="1.2"><defs><clipPath id="52946fe591"><path d="M 622 111 L 1032 111 L 1032 534 L 622 534 Z M 622 111 "/></clipPath><clipPath id="e0dcc0bb79"><path d="M 546.496094 234.621094 L 897.328125 36.957031 L 1108.121094 411.089844 L 757.285156 608.753906 Z M 546.496094 234.621094 "/></clipPath><clipPath id="4c08f1d739"><path d="M 721.910156 135.789062 C 625.03125 190.371094 593.53125 318.105469 651.554688 421.089844 C 709.574219 524.070312 835.148438 563.308594 932.027344 508.722656 C 1028.910156 454.140625 1060.410156 326.40625 1002.386719 223.421875 C 944.363281 120.441406 818.792969 81.207031 721.910156 135.789062 Z M 721.910156 135.789062 "/></clipPath><clipPath id="35be49173a"><path d="M 392 280 L 785 280 L 785 651 L 392 651 Z M 392 280 "/></clipPath><clipPath id="ba1e8ba476"><path d="M 373.417969 442.175781 L 661.902344 261.898438 L 803.46875 488.441406 L 514.984375 668.71875 Z M 373.417969 442.175781 "/></clipPath><clipPath id="753accb1fe"><path d="M 415.394531 415.945312 L 619.824219 288.195312 C 643.007812 273.707031 673.546875 280.757812 688.035156 303.941406 L 777.136719 446.523438 C 791.625 469.707031 784.578125 500.246094 761.394531 514.734375 L 556.964844 642.484375 C 533.78125 656.972656 503.242188 649.921875 488.753906 626.738281 L 399.652344 484.15625 C 385.164062 460.972656 392.210938 430.433594 415.394531 415.945312 Z M 415.394531 415.945312 "/></clipPath><clipPath id="07d4d55c10"><path d="M 235 257 L 733 257 L 733 788 L 235 788 Z M 235 257 "/></clipPath><clipPath id="7503259eb4"><path d="M 140.375 403.503906 L 559.734375 167.230469 L 827.386719 642.285156 L 408.027344 878.558594 Z M 140.375 403.503906 "/></clipPath><clipPath id="7bbc4ada17"><path d="M 350.054688 285.367188 C 234.25 350.609375 200.199219 509.683594 273.992188 640.660156 C 347.789062 771.640625 501.488281 824.925781 617.289062 759.679688 C 733.09375 694.4375 767.148438 535.367188 693.351562 404.386719 C 619.554688 273.410156 465.855469 220.121094 350.054688 285.367188 Z M 350.054688 285.367188 "/></clipPath><clipPath id="42f6e4af25"><path d="M 78 304 L 205 304 L 205 461 L 78 461 Z M 78 304 "/></clipPath><clipPath id="e0f7cbebef"><path d="M 70.660156 327.269531 L 195.867188 296.59375 L 232.121094 444.566406 L 106.914062 475.242188 Z M 70.660156 327.269531 "/></clipPath><clipPath id="4284856e29"><path d="M 204.421875 346.730469 L 187.757812 439.777344 C 186.039062 449.359375 178.835938 457.03125 169.382812 459.347656 C 159.925781 461.667969 149.992188 458.191406 144.039062 450.488281 L 86.25 375.683594 C 78.785156 366.019531 76.710938 353.230469 80.742188 341.703125 C 84.773438 330.171875 94.363281 321.460938 106.226562 318.554688 L 160.300781 305.308594 C 172.164062 302.402344 184.691406 305.691406 193.597656 314.050781 C 202.503906 322.410156 206.574219 334.707031 204.421875 346.730469 Z M 204.421875 346.730469 "/></clipPath><clipPath id="29c2bbbe50"><path d="M 9 486 L 124 486 L 124 600 L 9 600 Z M 9 486 "/></clipPath><clipPath id="9f5a0bfa81"><path d="M -5.609375 542.503906 L 66.027344 470.867188 L 151.914062 556.753906 L 80.277344 628.394531 Z M -5.609375 542.503906 "/></clipPath><clipPath id="c7f39bdf73"><path d="M 99.46875 509.171875 L 121.386719 566.039062 C 124.886719 575.121094 122.707031 585.417969 115.824219 592.300781 C 108.9375 599.183594 98.644531 601.367188 89.5625 597.863281 L 32.695312 575.945312 C 21.296875 571.550781 12.894531 561.695312 10.363281 549.746094 C 7.832031 537.796875 11.515625 525.378906 20.152344 516.742188 L 40.261719 496.632812 C 48.898438 487.996094 61.320312 484.3125 73.265625 486.84375 C 85.214844 489.375 95.074219 497.777344 99.46875 509.171875 Z M 99.46875 509.171875 "/></clipPath><clipPath id="8fcd3f8723"><path d="M 51 768 L 182 768 L 182 923 L 51 923 Z M 51 768 "/></clipPath><clipPath id="b491cb78de"><path d="M 150.835938 935.796875 L 38.253906 873 L 112.46875 739.949219 L 225.050781 802.746094 Z M 150.835938 935.796875 "/></clipPath><clipPath id="9b98117bff"><path d="M 66.132812 830.457031 L 141.699219 773.667969 C 149.480469 767.816406 159.976562 767.105469 168.480469 771.847656 C 176.984375 776.589844 181.890625 785.898438 181.003906 795.589844 L 172.386719 889.726562 C 171.273438 901.890625 164.082031 912.664062 153.277344 918.363281 C 142.476562 924.058594 129.523438 923.910156 118.855469 917.957031 L 70.234375 890.839844 C 59.566406 884.886719 52.632812 873.945312 51.804688 861.761719 C 50.976562 849.574219 56.367188 837.796875 66.132812 830.457031 Z M 66.132812 830.457031 "/></clipPath><clipPath id="80f9343989"><path d="M 159 505 L 460 505 L 460 707 L 159 707 Z M 159 505 "/></clipPath><clipPath id="9e06206c58"><path d="M 140.375 653.316406 L 434.183594 481.542969 L 479.191406 558.527344 L 185.386719 730.304688 Z M 140.375 653.316406 "/></clipPath><clipPath id="8cf05f534b"><path d="M 360.554688 524.589844 C 401.085938 500.890625 444.023438 498.914062 456.449219 520.171875 C 468.878906 541.429688 446.097656 577.875 405.5625 601.574219 L 258.777344 687.394531 C 218.242188 711.089844 175.308594 713.070312 162.878906 691.808594 C 150.449219 670.550781 173.234375 634.105469 213.769531 610.40625 Z M 360.554688 524.589844 "/></clipPath></defs><g id="d90bf57291"><g clip-rule="nonzero" clip-path="url(#52946fe591)"><g clip-rule="nonzero" clip-path="url(#e0dcc0bb79)"><g clip-rule="nonzero" clip-path="url(#4c08f1d739)"><path style=" stroke:none;fill-rule:nonzero;fill:#000000;fill-opacity:1;" d="M 546.496094 234.621094 L 897.328125 36.957031 L 1107.347656 409.71875 L 756.515625 607.382812 Z M 546.496094 234.621094 "/></g></g></g><g clip-rule="nonzero" clip-path="url(#35be49173a)"><g clip-rule="nonzero" clip-path="url(#ba1e8ba476)"><g clip-rule="nonzero" clip-path="url(#753accb1fe)"><path style=" stroke:none;fill-rule:nonzero;fill:#000000;fill-opacity:1;" d="M 373.417969 442.175781 L 661.902344 261.898438 L 803.46875 488.441406 L 514.984375 668.71875 Z M 373.417969 442.175781 "/></g></g></g><g clip-rule="nonzero" clip-path="url(#07d4d55c10)"><g clip-rule="nonzero" clip-path="url(#7503259eb4)"><g clip-rule="nonzero" clip-path="url(#7bbc4ada17)"><path style=" stroke:none;fill-rule:nonzero;fill:#000000;fill-opacity:1;" d="M 140.375 403.503906 L 559.734375 167.230469 L 827.386719 642.285156 L 408.027344 878.558594 Z M 140.375 403.503906 "/></g></g></g><g clip-rule="nonzero" clip-path="url(#42f6e4af25)"><g clip-rule="nonzero" clip-path="url(#e0f7cbebef)"><g clip-rule="nonzero" clip-path="url(#4284856e29)"><path style=" stroke:none;fill-rule:nonzero;fill:#000000;fill-opacity:1;" d="M 52.320312 331.761719 L 214.207031 292.101562 L 258.980469 474.855469 L 97.097656 514.515625 Z M 52.320312 331.761719 "/></g></g></g><g clip-rule="nonzero" clip-path="url(#29c2bbbe50)"><g clip-rule="nonzero" clip-path="url(#9f5a0bfa81)"><g clip-rule="nonzero" clip-path="url(#c7f39bdf73)"><path style=" stroke:none;fill-rule:nonzero;fill:#000000;fill-opacity:1;" d="M -19.089844 555.984375 L 79.507812 457.386719 L 190.816406 568.695312 L 92.21875 667.292969 Z M -19.089844 555.984375 "/></g></g></g><g clip-rule="nonzero" clip-path="url(#8fcd3f8723)"><g clip-rule="nonzero" clip-path="url(#b491cb78de)"><g clip-rule="nonzero" clip-path="url(#9b98117bff)"><path style=" stroke:none;fill-rule:nonzero;fill:#000000;fill-opacity:1;" d="M 167.324219 944.996094 L 21.765625 863.800781 L 113.421875 699.476562 L 258.984375 780.667969 Z M 167.324219 944.996094 "/></g></g></g><g clip-rule="nonzero" clip-path="url(#80f9343989)"><g clip-rule="nonzero" clip-path="url(#9e06206c58)"><g clip-rule="nonzero" clip-path="url(#8cf05f534b)"><path style=" stroke:none;fill-rule:nonzero;fill:#000000;fill-opacity:1;" d="M 140.375 653.316406 L 433.882812 481.71875 L 478.890625 558.703125 L 185.386719 730.304688 Z M 140.375 653.316406 "/></g></g></g></g></svg>